<?xml version="1.0" standalone="no"?><!DOCTYPE svg PUBLIC "-//W3C//DTD SVG 1.1//EN" "http://www.w3.org/Graphics/SVG/1.1/DTD/svg11.dtd"><svg t="1678985615352" class="icon" viewBox="0 0 1024 1024" version="1.1" xmlns="http://www.w3.org/2000/svg" p-id="1549" xmlns:xlink="http://www.w3.org/1999/xlink" width="32" height="32"><path d="M512 899.5c-213.668 0-387.5-173.832-387.5-387.5S298.332 124.5 512 124.5 899.5 298.332 899.5 512 725.668 899.5 512 899.5z" fill="#FFFFFF" p-id="1550"></path><path d="M512 137c-206.776 0-375 168.224-375 375s168.224 375 375 375 375-168.224 375-375-168.224-375-375-375m0-25c220.914 0 400 179.086 400 400S732.914 912 512 912 112 732.914 112 512s179.086-400 400-400z" fill="#2c2c2c" p-id="1551"></path><path d="M667.628 607.93c0-19.767-8.721-38.372-25-55.814-16.86-16.86-42.442-29.07-76.744-37.209 16.279-6.977 30.233-14.535 41.279-23.256a119.115 119.115 0 0 0 25-26.744c5.814-9.3 10.465-18.6 12.791-28.488a119.38 119.38 0 0 0 3.488-28.488 114.54 114.54 0 0 0-6.4-37.791 87.969 87.969 0 0 0-19.767-30.233c-8.721-8.721-19.767-15.7-32.558-20.93-13.372-4.651-28.488-6.977-45.93-6.977q-25.291 0-52.326 10.465a395.384 395.384 0 0 0-55.233 26.163c-1.163-11.047-2.326-19.767-4.651-26.163-2.907-5.814-7.558-9.3-13.953-9.3-5.814 0-11.047 1.744-16.279 4.07-5.233 2.907-9.3 6.4-11.628 10.465l2.326 22.674-0.581 31.977c-5.814 5.233-8.14 9.3-8.14 11.628a6.281 6.281 0 0 0 1.744 4.07c1.163 1.744 2.907 3.488 6.4 5.814v48.256c0 11.628-0.581 23.837-0.581 35.465V521.3q0 31.4-1.744 62.791c-1.163 20.93-3.488 42.442-5.814 65.7q-14.827 1.744-20.927 6.976c-4.651 4.07-6.4 8.14-6.4 12.791q0 8.721 6.977 12.209a103.428 103.428 0 0 0 15.7 6.977v11.047a6.6 6.6 0 0 0 1.744 4.651q1.744 3.488 6.977 5.233a17.06 17.06 0 0 0 9.3 2.326q4.36 0 10.465-3.488c3.488-1.744 6.4-5.233 8.721-11.047 5.233 1.744 12.209 2.907 20.349 4.07 8.14 1.744 16.279 2.907 25.581 4.07 8.721 1.163 17.442 2.326 26.744 2.907a155.917 155.917 0 0 0 22.674 1.163c12.209 0 23.256 0 33.721-1.163a152.67 152.67 0 0 0 28.488-2.907 98.238 98.238 0 0 0 25.581-6.977 134.477 134.477 0 0 0 26.163-12.791c12.791-6.977 22.674-16.86 30.814-29.651 7.559-12.21 11.629-28.487 11.629-48.257z m-62.209-201.163c0 31.4-14.535 54.07-42.442 68.6-29.07 15.116-72.093 24.419-129.07 29.07l1.163-29.07v-51.163c0-8.14 0.581-17.442 0.581-27.326 6.977-4.651 14.535-10.465 23.837-16.279a319.893 319.893 0 0 1 27.912-16.273c9.3-4.651 19.186-8.139 29.07-11.628a79 79 0 0 1 27.907-5.233 65.708 65.708 0 0 1 26.158 5.235 58.342 58.342 0 0 1 19.186 13.953c4.651 5.814 8.721 11.628 11.628 18.6 2.325 6.98 4.07 14.538 4.07 21.514z m17.441 207.559c0 17.442-8.721 31.4-26.163 42.442-17.442 11.628-45.349 16.86-84.884 16.86-9.3 0-18.6 0-26.744-1.163s-16.279-2.326-23.256-4.07a130.016 130.016 0 0 1-18.023-2.907L426.349 662c2.326-21.512 3.488-41.86 4.07-61.047 0-18.6 0-38.953 1.163-61.047h31.4c5.814 0.581 12.209 0.581 18.023 0.581h15.116c12.791 0 26.163 1.163 41.279 2.907a182.266 182.266 0 0 1 40.7 11.047 99.424 99.424 0 0 1 31.97 22.675c8.139 9.884 12.79 22.093 12.79 37.21z" fill="#2c2c2c" p-id="1552"></path></svg>