<?xml version="1.0" standalone="no"?><!DOCTYPE svg PUBLIC "-//W3C//DTD SVG 1.1//EN" "http://www.w3.org/Graphics/SVG/1.1/DTD/svg11.dtd"><svg t="1678990199353" class="icon" viewBox="0 0 1024 1024" version="1.1" xmlns="http://www.w3.org/2000/svg" p-id="1703" xmlns:xlink="http://www.w3.org/1999/xlink" width="32" height="32"><path d="M512 899.5c-213.668 0-387.5-173.832-387.5-387.5S298.332 124.5 512 124.5 899.5 298.332 899.5 512 725.668 899.5 512 899.5z" fill="#FFFFFF" p-id="1704"></path><path d="M512 137c-206.776 0-375 168.224-375 375s168.224 375 375 375 375-168.224 375-375-168.224-375-375-375m0-25c220.914 0 400 179.086 400 400S732.914 912 512 912 112 732.914 112 512s179.086-400 400-400z" fill="#2c2c2c" p-id="1705"></path><path d="M660.5 522.909c0-2.238-1.678-5.594-4.476-8.951s-6.154-6.154-10.07-9.51a91.99 91.99 0 0 0-12.308-7.832c-4.476-1.678-7.832-2.8-11.189-2.8q-5.035 1.678-11.748 3.357a105.566 105.566 0 0 1-11.748 3.357c-4.476 1.119-10.07 2.8-16.783 4.476a130.868 130.868 0 0 1-21.259 5.035 189.579 189.579 0 0 1-21.819 4.476 81.282 81.282 0 0 1-17.9 2.243h-19.018c-1.678 0-3.357 1.119-5.594 2.238a46.666 46.666 0 0 0-6.713 4.476c-2.238 2.238-4.476 3.916-5.594 5.594a10.37 10.37 0 0 0-2.239 5.592c0 7.832 2.8 13.427 8.951 17.343 5.594 4.476 12.867 6.154 21.259 6.154a48.313 48.313 0 0 0 8.392-0.559 27.612 27.612 0 0 0 8.392-1.678 199.036 199.036 0 0 0 21.818-5.035c5.594-1.125 11.188-2.242 16.782-3.92a149.966 149.966 0 0 0 15.1-3.916c1.119 1.119 3.357 1.678 6.154 2.8 2.238 1.119 3.357 2.8 4.476 3.916 0 3.916-1.678 8.951-3.916 14.545-1.119 3.357-2.8 5.594-3.916 7.832a54.517 54.517 0 0 0-2.8 6.154 210.613 210.613 0 0 1-16.224 27.972A167.612 167.612 0 0 1 543.58 632c-8.951 7.832-17.9 14.545-27.972 19.021a63.507 63.507 0 0 1-31.329 7.832c-23.5 0-40.839-7.273-52.028-22.937-11.751-15.105-17.342-36.364-17.342-64.336a451.883 451.883 0 0 1 6.713-79.44q6.713-36.923 23.5-75.524c2.8-6.713 7.273-13.986 12.867-21.818a115.488 115.488 0 0 1 18.462-22.378 89.6 89.6 0 0 1 23.5-16.783c8.392-4.476 17.343-7.273 26.853-7.273 13.427 0 24.056 3.357 31.888 8.951 7.273 6.154 13.427 11.748 19.021 17.343l8.392 10.07a38.6 38.6 0 0 0 8.951 10.07q6.713 8.392 18.462 8.392a23.45 23.45 0 0 0 15.664-5.594c3.916-3.357 6.154-8.392 6.154-14.546a12.752 12.752 0 0 0-1.678-6.154c-1.119-2.238-1.678-3.916-2.8-6.154a124.143 124.143 0 0 0-45.32-43.082c-19.58-10.07-39.72-15.664-60.979-15.664a98.633 98.633 0 0 0-47.552 12.308 170.883 170.883 0 0 0-39.161 33.566c-12.308 13.427-22.378 29.091-31.329 45.874a372.957 372.957 0 0 0-23.5 53.706 338.19 338.19 0 0 0-14.541 52.592A246.982 246.982 0 0 0 364 555.916c0 20.14 1.119 39.72 4.476 58.182s10.624 34.685 22.377 48.112c8.947 11.189 21.818 20.14 37.483 26.85s34.685 10.07 57.063 10.07a84.056 84.056 0 0 0 35.245-7.832c11.748-4.476 22.937-11.748 34.126-20.7a201.8 201.8 0 0 0 30.21-31.329 221.912 221.912 0 0 0 23.5-38.6 180.7 180.7 0 0 0-1.68 25.737 248.24 248.24 0 0 0-1.119 27.972c0 11.748 0.559 21.259 2.8 28.531 1.678 7.832 3.916 13.427 7.273 17.343a19.718 19.718 0 0 0 8.951 8.951c3.357 1.678 6.154 2.8 9.511 2.8a25.009 25.009 0 0 0 15.664-5.035 19.772 19.772 0 0 0 6.154-15.1c0-1.119-0.559-2.8-0.559-5.035l-1.678-6.713-2.238-7.832-1.678-6.713a224.777 224.777 0 0 1-5.035-29.091c-1.119-10.07-1.119-19.58-1.119-29.65a111.766 111.766 0 0 1 1.119-19.021l3.354-28.54v-10.07c0-1.119 0.559-3.357 2.238-6.713l4.476-6.154c1.119-2.238 2.8-4.476 3.916-6.713a14.9 14.9 0 0 0 1.67-6.714z" fill="#2c2c2c" p-id="1706"></path></svg>