<?xml version="1.0" standalone="no"?><!DOCTYPE svg PUBLIC "-//W3C//DTD SVG 1.1//EN" "http://www.w3.org/Graphics/SVG/1.1/DTD/svg11.dtd"><svg t="1678990211580" class="icon" viewBox="0 0 1024 1024" version="1.1" xmlns="http://www.w3.org/2000/svg" p-id="1863" xmlns:xlink="http://www.w3.org/1999/xlink" width="32" height="32"><path d="M512 899.5c-213.668 0-387.5-173.832-387.5-387.5S298.332 124.5 512 124.5 899.5 298.332 899.5 512 725.668 899.5 512 899.5z" fill="#FFFFFF" p-id="1864"></path><path d="M512 137c-206.776 0-375 168.224-375 375s168.224 375 375 375 375-168.224 375-375-168.224-375-375-375m0-25c220.914 0 400 179.086 400 400S732.914 912 512 912 112 732.914 112 512s179.086-400 400-400z" fill="#2c2c2c" p-id="1865"></path><path d="M675.326 332.93c0-6.977-3.488-12.209-9.884-15.7a46.442 46.442 0 0 0-20.93-5.233q-18.314 0-22.674 10.465c-3.488 6.977-4.651 15.7-4.651 26.163a102.915 102.915 0 0 0 0.581 13.372v13.372c0 18.6-0.581 38.953-1.163 61.628-1.163 22.674-2.326 44.767-2.326 65.7l-39.535 4.07c-16.279 2.326-33.14 4.07-50.581 5.814l-52.903 5.233c-17.442 1.744-32.558 2.907-44.767 3.488-0.581-8.721-0.581-16.279-0.581-23.256v-18.023a78.893 78.893 0 0 1 0.581-10.465 75.42 75.42 0 0 1 1.744-15.116 88.736 88.736 0 0 1 1.74-17.442c0.581-5.814 1.744-11.628 2.907-17.442l5.814-30.233c2.326-9.884 4.651-19.186 6.977-28.488a20.559 20.559 0 0 0 0.581-3.488v-0.581c0-5.814-4.07-11.047-11.047-15.116-6.977-3.488-13.953-5.233-19.767-5.233s-9.3 1.163-11.628 2.907c-2.907 2.326-5.233 6.4-6.977 11.628a100.322 100.322 0 0 0-6.4 26.744c-1.744 10.465-2.907 22.093-4.07 34.3a98 98 0 0 0-1.744 19.186l-1.158 22.095c-0.581 8.14-0.581 15.116-0.581 22.093-0.581 7.558-0.581 13.953-0.581 18.6v27.907a35.189 35.189 0 0 1-8.721 1.163 67.22 67.22 0 0 1-9.884 0.581c-5.814 0-9.884 2.326-12.209 5.814A27.621 27.621 0 0 0 348 543.4q0 7.844 6.977 12.2a20.484 20.484 0 0 0 13.372 5.233h15.116l1.744 34.3c0.581 12.209 1.744 24.419 2.907 36.046 1.163 12.791 2.326 24.419 4.07 34.884 1.744 11.047 4.07 19.767 7.558 26.163 4.651 9.884 11.628 14.535 22.093 14.535a25.51 25.51 0 0 0 15.7-5.233c4.651-3.488 7.558-8.14 7.558-13.953a33.463 33.463 0 0 0-1.163-5.814c-2.326-7.558-4.07-17.442-6.4-30.233a255.134 255.134 0 0 1-4.07-35.465l-2.322-26.156c-1.163-8.721-1.744-19.186-2.326-30.814a5579.756 5579.756 0 0 0 51.746-3.493c15.7-1.163 30.814-2.326 45.93-4.07l16.86-1.744c6.977-0.581 14.535-1.163 22.674-2.326l25-3.488c8.14-1.163 16.279-2.326 23.256-3.488l1.163 56.977c0 16.86 1.163 33.721 2.326 50.581v22.674c0 4.07 0.581 8.14 0.581 11.628s0 6.977 1.163 10.465c0.581 5.814 4.07 10.465 11.047 13.953a38.665 38.665 0 0 0 19.767 5.233c12.791 0 19.767-6.4 19.767-19.767a71.235 71.235 0 0 0-1.163-11.047l-1.744-10.465a56.862 56.862 0 0 1-1.745-15.116 81.775 81.775 0 0 1-1.744-16.279c-2.326-37.209-3.488-75-3.488-112.791 0-21.512 0-44.186 0.581-68.023 0.581-23.256 1.744-45.93 2.907-68.023a117.649 117.649 0 0 1 2.907-25 126.557 126.557 0 0 1 6.977-25c1.162-1.158 1.744-4.065 1.744-7.554z" fill="#2c2c2c" p-id="1866"></path></svg>