<?xml version="1.0" standalone="no"?><!DOCTYPE svg PUBLIC "-//W3C//DTD SVG 1.1//EN" "http://www.w3.org/Graphics/SVG/1.1/DTD/svg11.dtd"><svg t="1678990270808" class="icon" viewBox="0 0 1024 1024" version="1.1" xmlns="http://www.w3.org/2000/svg" p-id="2983" xmlns:xlink="http://www.w3.org/1999/xlink" width="32" height="32"><path d="M512 899.5c-213.668 0-387.5-173.832-387.5-387.5S298.332 124.5 512 124.5 899.5 298.332 899.5 512 725.668 899.5 512 899.5z" fill="#FFFFFF" p-id="2984"></path><path d="M512 137c-206.776 0-375 168.224-375 375s168.224 375 375 375 375-168.224 375-375-168.224-375-375-375m0-25c220.914 0 400 179.086 400 400S732.914 912 512 912 112 732.914 112 512s179.086-400 400-400z" fill="#2c2c2c" p-id="2985"></path><path d="M675.326 487c0-9.3-1.163-20.349-2.907-33.14a272.208 272.208 0 0 0-10.465-38.372 273.785 273.785 0 0 0-17.442-37.788 176.956 176.956 0 0 0-25-33.14 131.14 131.14 0 0 0-33.14-23.26 93.1 93.1 0 0 0-40.7-9.3c-32.558 0-61.628 7.558-86.046 22.093A212.828 212.828 0 0 0 398 390.488a242.282 242.282 0 0 0-37.209 73.256C352.07 490.488 348 514.907 348 538.163c0 27.326 3.488 51.744 10.465 72.674 6.977 22.093 17.442 40.116 30.235 54.651a127.965 127.965 0 0 0 47.093 34.884c18.023 8.14 38.372 11.628 60.465 11.628 29.651 0 55.814-5.814 78.488-18.023a160.286 160.286 0 0 0 55.812-48.837c15.116-20.349 26.163-44.186 33.721-71.512A350.055 350.055 0 0 0 675.326 487z m-44.186 8.721a227.634 227.634 0 0 1-8.721 61.047 214.483 214.483 0 0 1-25.581 57.558c-11.629 17.441-25.582 31.974-41.861 43.023-17.442 11.628-36.628 16.86-58.721 16.86-18.6 0-34.3-4.07-47.093-12.791a101.133 101.133 0 0 1-31.4-31.4 117.2 117.2 0 0 1-18.6-39.535 133.083 133.083 0 0 1-5.814-37.783 233.068 233.068 0 0 1 3.488-37.209A344.631 344.631 0 0 1 407.3 471.3a226.028 226.028 0 0 1 19.186-44.186 191.1 191.1 0 0 1 27.326-39.535 133.906 133.906 0 0 1 37.209-27.326c13.953-6.977 30.233-10.465 48.256-10.465q17.442 0 34.884 12.209a129.981 129.981 0 0 1 29.651 33.721 211.3 211.3 0 0 1 19.767 46.512c4.654 17.444 7.561 35.47 7.561 53.491z" fill="#2c2c2c" p-id="2986"></path></svg>