<?xml version="1.0" standalone="no"?><!DOCTYPE svg PUBLIC "-//W3C//DTD SVG 1.1//EN" "http://www.w3.org/Graphics/SVG/1.1/DTD/svg11.dtd"><svg t="1678990331463" class="icon" viewBox="0 0 1024 1024" version="1.1" xmlns="http://www.w3.org/2000/svg" p-id="4107" xmlns:xlink="http://www.w3.org/1999/xlink" width="32" height="32"><path d="M512 899.5c-213.668 0-387.5-173.832-387.5-387.5S298.332 124.5 512 124.5 899.5 298.332 899.5 512 725.668 899.5 512 899.5z" fill="#FFFFFF" p-id="4108"></path><path d="M512 137c-206.776 0-375 168.224-375 375s168.224 375 375 375 375-168.224 375-375-168.224-375-375-375m0-25c220.914 0 400 179.086 400 400S732.914 912 512 912 112 732.914 112 512s179.086-400 400-400z" fill="#2c2c2c" p-id="4109"></path><path d="M664.37 332.9c0-5.806-3.483-10.45-10.45-14.514S640.567 312 634.762 312c-3.483 0-6.386 0.581-9.869 0.581a25.65 25.65 0 0 0-9.289 3.483c-4.644 2.9-7.547 5.806-8.708 8.128q-1.742 4.354-1.742 12.192c0 8.128-0.581 15.675-1.161 22.642-1.161 8.128-2.9 16.255-4.644 25.544-4.644 21.48-10.45 45.283-17.417 71.988s-13.932 52.83-22.061 78.374c-8.128 26.125-16.836 50.508-25.544 72.568-9.289 22.642-18 40.639-26.705 53.991-5.806-6.386-10.45-14.514-15.094-23.8s-8.128-19.16-11.612-30.191a305.115 305.115 0 0 1-10.45-34.833c-3.483-11.611-6.386-22.641-8.708-34.253-6.967-24.964-12.772-50.508-18-76.052l-13.931-69.085c-1.161-4.644-1.742-9.289-2.9-14.514a115.929 115.929 0 0 1-2.9-15.094l-3.483-13.933a117.015 117.015 0 0 0-4.064-13.353c-4.644-9.289-12.772-14.514-24.383-14.514a63.973 63.973 0 0 0-10.45 1.161 62.915 62.915 0 0 0-11.03 4.644 50.5 50.5 0 0 0-8.128 6.967 11.24 11.24 0 0 0-3.483 7.547 12.5 12.5 0 0 0 1.161 6.386l4.064 8.128c1.161 3.483 2.9 6.386 4.064 9.289 1.161 3.483 2.9 6.967 4.064 9.869 6.967 24.383 13.353 49.927 19.158 76.052 5.806 26.705 11.611 52.25 18.578 77.794 2.896 12.194 6.96 26.126 11.605 42.381s10.45 33.091 16.255 49.347a373.836 373.836 0 0 0 20.319 46.444c6.967 15.094 15.094 26.705 23.8 34.833a21.3 21.3 0 0 0 12.192 6.967A42.188 42.188 0 0 0 508.78 712a35.109 35.109 0 0 0 12.772-2.322 20.147 20.147 0 0 0 11.03-6.967c6.967-8.128 14.514-20.319 22.642-35.994 8.128-15.094 15.675-31.93 23.222-49.347 6.969-17.416 13.354-34.252 19.161-51.088q8.708-24.383 13.933-41.8c7.547-25.544 14.514-49.347 20.319-72.569l18-70.247c0.581-2.9 2.322-7.547 4.644-14.514l5.225-15.094c2.9-6.967 4.642-13.353 4.642-19.158z" fill="#2c2c2c" p-id="4110"></path></svg>