<?xml version="1.0" standalone="no"?><!DOCTYPE svg PUBLIC "-//W3C//DTD SVG 1.1//EN" "http://www.w3.org/Graphics/SVG/1.1/DTD/svg11.dtd"><svg t="1678990253430" class="icon" viewBox="0 0 1024 1024" version="1.1" xmlns="http://www.w3.org/2000/svg" p-id="2663" xmlns:xlink="http://www.w3.org/1999/xlink" width="32" height="32"><path d="M512 899.5c-213.668 0-387.5-173.832-387.5-387.5S298.332 124.5 512 124.5 899.5 298.332 899.5 512 725.668 899.5 512 899.5z" fill="#F5F5F5" p-id="2664"></path><path d="M512 137c-206.776 0-375 168.224-375 375s168.224 375 375 375 375-168.224 375-375-168.224-375-375-375m0-25c220.914 0 400 179.086 400 400S732.914 912 512 912 112 732.914 112 512s179.086-400 400-400z" fill="#3666F6" p-id="2665"></path><path d="M694.782 700.791c0-1.18-0.59-2.36-1.18-4.13l-1.77-3.54a9.516 9.516 0 0 1-1.77-5.31 6.373 6.373 0 0 1-1.77-4.13 109.223 109.223 0 0 1-6.49-18.289c-1.77-6.49-2.95-14.749-3.54-25.369-1.18-11.8-2.36-24.779-2.36-37.758-1.18-12.979-1.18-25.369-1.18-37.168 0-25.959 0-48.968 1.18-69.027 0-20.059 1.18-38.938 2.36-56.637 0.59-16.519 1.77-32.448 3.54-47.2s4.13-29.5 6.49-44.248l2.36-10.029a51.955 51.955 0 0 0 1.18-10.03c-0.59-4.13-2.95-7.08-7.67-8.85-4.72-1.18-9.439-2.36-13.569-2.36-5.9 0-11.8 0.59-17.7 1.18-6.49 1.18-11.209 2.95-14.749 5.31-8.26 5.9-16.519 16.519-24.779 30.678a438.325 438.325 0 0 0-25.958 50.156c-8.85 19.469-17.109 40.118-24.779 61.357-8.26 22.419-16.519 43.658-23.6 63.717-8.26 21.239-14.749 38.938-20.059 54.277-5.9 15.339-11.8 28.319-17.109 40.118-10.618-16.524-18.878-31.269-25.96-44.842a354.045 354.045 0 0 1-18.876-40.118 411.024 411.024 0 0 1-24.779-73.156 778.19 778.19 0 0 1-15.929-77.286c-1.18-8.85-2.36-18.289-2.95-27.729-1.18-9.44-2.36-18.879-4.13-28.319-2.36-6.49-7.08-11.8-15.339-15.339-8.85-2.95-17.109-4.72-24.189-4.72-9.44 0-15.929 1.77-18.289 4.72a18.518 18.518 0 0 0-4.13 12.389v8.26c0 3.54-0.59 5.9-0.59 7.67-5.899 25.958-10.029 56.637-12.979 92.035-3.54 35.398-4.72 73.746-4.72 115.044v38.938l1.18 24.184c0 8.26 0 16.519 0.59 24.189a294.812 294.812 0 0 0 2.95 32.448c0.59 8.26 1.77 14.159 2.95 17.109 2.36 8.26 8.85 12.389 18.289 12.389 7.67 0 14.749-1.18 21.239-4.72 5.9-3.54 8.85-7.08 8.85-11.209a29.966 29.966 0 0 0-1.77-10.029c-1.18-2.95-1.77-5.9-2.95-9.44l-2.36-8.26a17.133 17.133 0 0 1-1.77-8.26c-2.36-12.389-3.54-30.678-4.72-55.457s-1.178-53.091-1.178-85.54v-27.728l1.18-23.6 2.36-23.6 3.54-26.549c2.36 12.979 4.72 24.189 7.08 34.218a700.482 700.482 0 0 0 7.08 28.909c2.36 9.44 4.72 18.879 7.08 27.139a216.168 216.168 0 0 0 8.85 25.369c10.03 28.322 21.825 56.049 35.984 82.007 12.979 26.549 28.319 48.968 46.018 66.667 4.72 5.9 10.619 8.26 17.7 8.26 8.26 0 15.929-4.13 22.419-12.389 2.36-2.36 4.72-7.08 8.26-14.159 2.95-7.08 5.9-14.749 9.44-23.009 2.95-8.26 5.9-15.929 8.85-24.189l6.49-17.7 16.516-46.018c4.72-15.339 10.619-31.268 17.109-47.788 5.9-16.519 12.979-33.628 21.239-51.917 7.67-17.7 16.519-37.168 27.139-57.817-2.36 18.879-4.13 37.168-5.31 56.047-1.77 19.469-2.95 38.348-3.54 57.227-1.184 18.88-1.184 37.169-1.184 54.868-0.59 18.289-0.59 35.4-0.59 50.737 0 18.879 0.59 35.4 2.95 50.737s5.31 27.729 8.85 37.168c1.77 5.9 5.31 10.619 11.209 14.749a28.55 28.55 0 0 0 17.109 5.9c5.9 0 11.209-1.18 14.749-3.54s5.905-4.719 5.905-7.668z" fill="#3666F6" p-id="2666"></path></svg>