<?xml version="1.0" standalone="no"?><!DOCTYPE svg PUBLIC "-//W3C//DTD SVG 1.1//EN" "http://www.w3.org/Graphics/SVG/1.1/DTD/svg11.dtd"><svg t="1678504025485" class="icon" viewBox="0 0 1024 1024" version="1.1" xmlns="http://www.w3.org/2000/svg" p-id="1652" width="48" height="48" xmlns:xlink="http://www.w3.org/1999/xlink"><path d="M511.914 63.989c-194.032 0-351.941 157.909-351.941 351.941 0 187.323 315.474 519.999 328.891 534.104 6.02 6.365 14.449 9.977 23.222 9.977h0.688c8.945 0 17.545-4.128 23.394-11.009l109.229-125.054c145.18-177.691 218.63-314.958 218.63-407.845 0-194.204-157.909-352.113-352.113-352.113z m0 511.914c-88.415 0-159.973-71.558-159.973-159.973s71.558-159.973 159.973-159.973 159.973 71.558 159.973 159.973-71.558 159.973-159.973 159.973z" p-id="1653" fill="#d81e06"></path></svg>