<?xml version="1.0" standalone="no"?><!DOCTYPE svg PUBLIC "-//W3C//DTD SVG 1.1//EN" "http://www.w3.org/Graphics/SVG/1.1/DTD/svg11.dtd"><svg t="1678102653343" class="icon" viewBox="0 0 1024 1024" version="1.1" xmlns="http://www.w3.org/2000/svg" p-id="3471" xmlns:xlink="http://www.w3.org/1999/xlink" width="24" height="24"><path d="M902.211 410.358a31.766 31.766 0 0 0-25.644-21.62L644.34 354.994 540.485 144.561a31.765 31.765 0 0 0-56.971 0L379.659 354.995l-232.227 33.744a31.768 31.768 0 0 0-17.606 54.183l168.042 163.8-39.669 231.288a31.765 31.765 0 0 0 46.091 33.487L512 762.298l207.71 109.199c6.915 3.65 22.854 4.496 33.454-2.418 10.086-6.579 14.681-19.151 12.637-31.069l-39.669-231.288 168.041-163.8a31.765 31.765 0 0 0 8.038-32.564z" fill="#efb336" p-id="3472"></path></svg>