<?xml version="1.0" standalone="no"?><!DOCTYPE svg PUBLIC "-//W3C//DTD SVG 1.1//EN" "http://www.w3.org/Graphics/SVG/1.1/DTD/svg11.dtd"><svg t="1678514414348" class="icon" viewBox="0 0 1024 1024" version="1.1" xmlns="http://www.w3.org/2000/svg" p-id="8473" xmlns:xlink="http://www.w3.org/1999/xlink" width="32" height="32"><path d="M512 860.672A29.056 29.056 0 0 1 482.56 832V677.12c-215.296 8.576-298.752 114.304-325.12 161.024a29.312 29.312 0 0 1-54.656-12.8c0-8.576-11.264-211.968 115.2-352.896 65.024-72.576 153.6-115.2 264.832-125.44V192a29.184 29.184 0 0 1 48-22.4l380.544 320a29.184 29.184 0 0 1 0 44.8l-380.544 320a29.312 29.312 0 0 1-18.816 6.272z m-0.768-242.56H512a29.312 29.312 0 0 1 29.184 29.312v121.344L846.848 512l-305.92-256.768v119.04a29.184 29.184 0 0 1-27.776 29.184c-107.52 5.376-192 41.728-251.776 108.16-61.568 68.608-85.632 156.672-94.976 221.568a395.264 395.264 0 0 1 151.424-85.888 646.016 646.016 0 0 1 193.152-29.184z" p-id="8474" fill="#2c2c2c"></path></svg>