<?xml version="1.0" standalone="no"?><!DOCTYPE svg PUBLIC "-//W3C//DTD SVG 1.1//EN" "http://www.w3.org/Graphics/SVG/1.1/DTD/svg11.dtd"><svg t="1678514103147" class="icon" viewBox="0 0 1024 1024" version="1.1" xmlns="http://www.w3.org/2000/svg" p-id="2845" width="32" height="32" xmlns:xlink="http://www.w3.org/1999/xlink"><path d="M537.556007 1012.4818C530.997032 1019.720669 521.678488 1023.840025 511.880019 1023.840025 502.041556 1023.840025 492.723012 1019.720669 486.164037 1012.4818 446.370255 968.608655 97.624746 578.829558 97.624746 404.136854 97.624746 221.085455 282.395876 0 511.880019 0 618.823309 0 723.087018 47.312607 805.394157 133.179191 880.982347 211.96688 926.095298 313.271051 926.095298 404.136854 926.095298 578.829558 577.349789 968.608655 537.556007 1012.4818ZM511.880019 68.269333C325.94907 68.269333 166.65396 252.960475 166.65396 404.136854 166.65396 520.758631 395.858147 805.95407 511.880019 938.093423 627.821903 805.914076 857.066083 520.678644 857.066083 404.136854 857.066083 252.960475 697.770973 68.269333 511.880019 68.269333ZM511.880019 558.91267C416.694891 558.91267 339.26699 482.364631 339.26699 388.299328 339.26699 294.194032 416.694891 217.645993 511.880019 217.645993 607.025152 217.645993 684.453054 294.194032 684.453054 388.299328 684.453054 482.364631 607.025152 558.91267 511.880019 558.91267ZM511.880019 285.915326C454.768942 285.915326 408.296204 331.828152 408.296204 388.299328 408.296204 444.730511 454.768942 490.683331 511.880019 490.683331 568.951101 490.683331 615.42384 444.730511 615.42384 388.299328 615.42384 331.828152 568.951101 285.915326 511.880019 285.915326Z" p-id="2846" fill="#1296DB"></path></svg>