<?xml version="1.0" standalone="no"?><!DOCTYPE svg PUBLIC "-//W3C//DTD SVG 1.1//EN" "http://www.w3.org/Graphics/SVG/1.1/DTD/svg11.dtd"><svg t="1677077276201" class="icon" viewBox="0 0 1024 1024" version="1.1" xmlns="http://www.w3.org/2000/svg" p-id="5267" xmlns:xlink="http://www.w3.org/1999/xlink" width="200" height="200"><path d="M976.948381 946.888761 749.532905 719.473285c28.916587-32.756031 52.169173-69.64622 69.236897-109.999276 21.116947-49.925063 31.823799-102.94358 31.823799-157.581991s-10.706853-107.657952-31.823799-157.581991c-20.390399-48.208978-49.575092-91.498924-86.745666-128.668475s-80.46052-66.355267-128.668475-86.745666C553.430598 57.778938 500.413104 47.072085 445.773669 47.072085c-54.639434 0-107.657952 10.706853-157.581991 31.823799-48.207955 20.390399-91.498924 49.576115-128.668475 86.745666-37.169551 37.169551-66.355267 80.459496-86.745666 128.668475C51.66059 344.234065 40.953737 397.252583 40.953737 451.892017S51.66059 559.548946 72.777537 609.474009c20.390399 48.207955 49.576115 91.498924 86.745666 128.668475 37.169551 37.169551 80.46052 66.35629 128.668475 86.74669 49.925063 21.116947 102.94358 31.823799 157.581991 31.823799 54.639434 0 107.657952-10.706853 157.583015-31.823799 40.352033-17.067724 77.242222-40.320311 109.998253-69.236897l227.415476 227.415476c4.995781 4.995781 11.541871 7.492648 18.090007 7.492648s13.094226-2.496867 18.090007-7.492648C986.938919 973.07619 986.938919 956.878277 976.948381 946.888761zM445.773669 805.546639c-94.464465 0-183.275163-36.786835-250.071476-103.58417-66.796312-66.795289-103.583147-155.605987-103.583147-250.071476 0-94.464465 36.786835-183.275163 103.583147-250.071476 66.796312-66.796312 155.60701-103.583147 250.071476-103.583147s183.275163 36.786835 250.071476 103.583147c66.796312 66.796312 103.583147 155.60701 103.583147 250.071476 0 92.640933-35.400255 179.829691-99.768261 246.163469-1.515516 0.974188-2.953262 2.118244-4.278443 3.444449-1.325182 1.325182-2.469238 2.762927-3.443425 4.27742C625.602338 770.145361 538.41358 805.546639 445.773669 805.546639z" fill="#A9B7B7" p-id="5268"></path></svg>