<?xml version="1.0" standalone="no"?><!DOCTYPE svg PUBLIC "-//W3C//DTD SVG 1.1//EN" "http://www.w3.org/Graphics/SVG/1.1/DTD/svg11.dtd"><svg t="1677142522647" class="icon" viewBox="0 0 1024 1024" version="1.1" xmlns="http://www.w3.org/2000/svg" p-id="5175" xmlns:xlink="http://www.w3.org/1999/xlink" width="200" height="200"><path d="M512 960C265.6 960 64 758.4 64 512S265.6 64 512 64s448 201.6 448 448-201.6 448-448 448z m0-64c211.2 0 384-172.8 384-384S723.2 128 512 128 128 300.8 128 512s172.8 384 384 384z m188.8-531.2L608 592c-3.2 9.6-9.6 16-19.2 19.2l-227.2 89.6c-25.6 9.6-51.2-16-41.6-41.6l89.6-227.2c3.2-9.6 9.6-16 19.2-19.2l227.2-89.6c28.8-9.6 54.4 16 44.8 41.6z m-233.6 102.4l-57.6 144 144-57.6 57.6-144-144 57.6z" fill="#515151" p-id="5176"></path></svg>