<?xml version="1.0" standalone="no"?><!DOCTYPE svg PUBLIC "-//W3C//DTD SVG 1.1//EN" "http://www.w3.org/Graphics/SVG/1.1/DTD/svg11.dtd"><svg t="1678985624143" class="icon" viewBox="0 0 1024 1024" version="1.1" xmlns="http://www.w3.org/2000/svg" p-id="1715" xmlns:xlink="http://www.w3.org/1999/xlink" width="32" height="32"><path d="M512 899.5c-213.668 0-387.5-173.832-387.5-387.5S298.332 124.5 512 124.5 899.5 298.332 899.5 512 725.668 899.5 512 899.5z" fill="#3666F6" p-id="1716"></path><path d="M512 137c-206.776 0-375 168.224-375 375s168.224 375 375 375 375-168.224 375-375-168.224-375-375-375m0-25c220.914 0 400 179.086 400 400S732.914 912 512 912 112 732.914 112 512s179.086-400 400-400z" fill="#FFFFFF" p-id="1717"></path><path d="M660.242 602.86c0-5.225-2.9-9.289-8.128-12.772-5.225-2.9-10.45-4.644-15.675-4.644a23.185 23.185 0 0 0-10.449 2.316 24.747 24.747 0 0 0-6.967 6.386 120.621 120.621 0 0 0-8.708 11.614c-3.483 4.064-6.386 7.547-9.869 11.03a266.264 266.264 0 0 1-22.646 21.48 217.009 217.009 0 0 1-28.447 18.578 142.515 142.515 0 0 1-31.35 12.772 108.539 108.539 0 0 1-32.511 5.225 65.613 65.613 0 0 1-26.125-5.225 52.483 52.483 0 0 1-23.222-17.417c-6.967-6.967-12.772-16.836-16.836-29.028-4.64-11.615-6.382-26.124-6.382-42.96 0-10.45 0-22.641 1.161-35.994 1.162-12.773 2.323-24.961 3.484-35.995 3.483-24.966 8.708-47.605 16.255-68.505 6.967-19.739 15.094-37.155 24.383-51.089s19.158-24.964 29.608-33.091c10.45-7.547 20.319-11.611 30.189-11.611 4.644 0 9.289 1.161 13.933 2.322a122.842 122.842 0 0 1 12.192 6.386 159.436 159.436 0 0 1 15.094 12.772c4.644 4.644 9.289 9.869 13.353 14.514 2.322 4.064 4.644 6.967 6.967 8.128a22.966 22.966 0 0 0 8.708 5.806c2.322 1.742 5.225 2.322 8.708 2.322a31.6 31.6 0 0 0 15.675-4.064c4.644-2.9 7.547-6.967 7.547-12.772a12.978 12.978 0 0 0-1.742-5.806l-2.322-4.644c-5.806-6.386-12.192-12.772-19.158-19.739a192.781 192.781 0 0 0-24.383-18.578 180.879 180.879 0 0 0-28.447-13.353 89.266 89.266 0 0 0-30.189-5.225 97.223 97.223 0 0 0-38.9 8.128c-12.772 5.806-23.222 12.192-31.93 20.319a176.977 176.977 0 0 0-37.733 49.348 322.674 322.674 0 0 0-24.963 60.377c-6.387 22.061-11.031 43.542-13.353 65.022A454.327 454.327 0 0 0 363 574.409a184.567 184.567 0 0 0 3.483 35.994 112.024 112.024 0 0 0 10.45 34.257 106.673 106.673 0 0 0 21.48 30.189 110.071 110.071 0 0 0 33.091 23.8c17.417 9.289 36.575 13.353 57.475 13.353 22.061 0 41.219-2.9 58.636-8.708a193.1 193.1 0 0 0 46.445-23.224 192.039 192.039 0 0 0 35.994-32.51c9.869-11.611 18.578-23.222 26.705-34.833l2.322-4.644a11.592 11.592 0 0 0 1.161-5.223z" fill="#FFFFFF" p-id="1718"></path></svg>