<?xml version="1.0" standalone="no"?><!DOCTYPE svg PUBLIC "-//W3C//DTD SVG 1.1//EN" "http://www.w3.org/Graphics/SVG/1.1/DTD/svg11.dtd"><svg t="1678990176056" class="icon" viewBox="0 0 1024 1024" version="1.1" xmlns="http://www.w3.org/2000/svg" p-id="1383" xmlns:xlink="http://www.w3.org/1999/xlink" width="32" height="32"><path d="M512 899.5c-213.668 0-387.5-173.832-387.5-387.5S298.332 124.5 512 124.5 899.5 298.332 899.5 512 725.668 899.5 512 899.5z" fill="#3666F6" p-id="1384"></path><path d="M512 137c-206.776 0-375 168.224-375 375s168.224 375 375 375 375-168.224 375-375-168.224-375-375-375m0-25c220.914 0 400 179.086 400 400S732.914 912 512 912 112 732.914 112 512s179.086-400 400-400z" fill="#FFFFFF" p-id="1385"></path><path d="M640.266 336.748a25.476 25.476 0 0 0-6.331-17.266A21.725 21.725 0 0 0 617.244 312c-4.6 0-10.36 0.576-17.266 0.576-7.482 1.151-16.691 1.727-27.05 2.3l-32.23 2.3-32.806 2.3-45.468 2.3q-23.309 1.727-46.619 1.727c-11.511 0-20.144 2.3-24.748 5.755-5.757 4.037-8.057 9.792-8.057 17.274a21.042 21.042 0 0 0 5.18 14.389c3.453 4.6 8.633 8.058 16.691 9.209-2.3 25.9-3.453 52.95-4.6 80.576-1.156 28.774-1.156 55.826-1.156 81.15v36.835l1.151 40.863c0 13.813 0 26.475 0.576 37.986 0 12.086 0.576 21.295 0.576 28.2 0 11.511 2.878 20.719 7.482 27.05s13.237 9.209 25.9 9.209c4.6 0 9.784-1.727 16.115-4.6 5.755-2.878 8.633-6.331 8.633-10.935 0-1.727-0.576-3.453-0.576-5.18 0-1.151-0.576-2.3-0.576-4.029a9.283 9.283 0 0 1-1.727-5.18l-1.727-5.18a76.867 76.867 0 0 1-4.029-10.36 33.509 33.509 0 0 1-1.727-10.935c-1.727-18.417-2.3-37.986-2.3-57.554s-0.576-39.712-0.576-61.007l67.914-4.6c21.295-1.727 42.59-4.029 63.309-7.482l9.209-1.727c3.453 0 6.906-1.151 10.36-2.3a37.576 37.576 0 0 0 9.784-4.6 9.468 9.468 0 0 0 4.6-8.633c0-2.878-1.151-5.755-2.878-9.209a110.492 110.492 0 0 0-8.058-8.633 100.015 100.015 0 0 0-10.935-5.755c-4.029-1.151-7.482-2.3-10.36-2.3-3.453 0-6.331 0.576-9.784 0.576l-10.36 1.727c-4.029 1.151-7.482 1.727-10.36 2.3l-10.36 2.3a287.39 287.39 0 0 1-44.317 3.453c-14.959 1.139-31.074 1.714-48.34 2.866 0-21.871 0-42.59 0.576-63.309 0-20.144 1.151-40.863 2.878-62.734q27.626-1.727 53.525-3.453l51.8-1.727c10.36-0.576 21.295-1.151 32.23-1.727a202.217 202.217 0 0 0 31.655-2.878 24.765 24.765 0 0 0 15.54-7.482c4.026-3.453 6.328-8.632 6.328-14.964z" fill="#FFFFFF" p-id="1386"></path></svg>