<?xml version="1.0" standalone="no"?><!DOCTYPE svg PUBLIC "-//W3C//DTD SVG 1.1//EN" "http://www.w3.org/Graphics/SVG/1.1/DTD/svg11.dtd"><svg t="1678990243785" class="icon" viewBox="0 0 1024 1024" version="1.1" xmlns="http://www.w3.org/2000/svg" p-id="2503" xmlns:xlink="http://www.w3.org/1999/xlink" width="32" height="32"><path d="M512 899.5c-213.668 0-387.5-173.832-387.5-387.5S298.332 124.5 512 124.5 899.5 298.332 899.5 512 725.668 899.5 512 899.5z" fill="#3666F6" p-id="2504"></path><path d="M512 137c-206.776 0-375 168.224-375 375s168.224 375 375 375 375-168.224 375-375-168.224-375-375-375m0-25c220.914 0 400 179.086 400 400S732.914 912 512 912 112 732.914 112 512s179.086-400 400-400z" fill="#FFFFFF" p-id="2505"></path><path d="M629.569 695.09c0-8.163-3.5-15.16-9.913-22.157-7-5.831-14.577-9.329-23.324-9.329-2.915 0-5.831 0.583-8.746 0.583l-8.746 1.749-8.746 2.332c-3.5 0.583-6.414 1.166-9.329 1.749a88.776 88.776 0 0 1-24.49 3.5c-8.746 0.583-16.91 0.583-25.073 0.583-16.327 0-29.155-2.332-38.484-7.58a43.308 43.308 0 0 1-20.409-20.409c-4.665-8.163-7-17.493-8.163-29.155-1.166-10.5-1.166-22.157-1.166-33.819 0-30.321 0.583-60.641 2.915-90.962q2.624-45.481 7-90.962c0.583-9.329 1.749-19.242 2.915-29.155a237.338 237.338 0 0 0 1.749-29.155 35.385 35.385 0 0 0-7-21.574A23.766 23.766 0 0 0 431.317 312c-3.5 0-7.58 0.583-11.662 0.583a61.93 61.93 0 0 0-11.079 2.332 23.067 23.067 0 0 0-8.746 5.831c-2.332 2.332-3.5 5.831-3.5 9.913a73.894 73.894 0 0 0 2.335 19.821 119.033 119.033 0 0 1 1.749 19.825c0 30.9-1.166 61.808-2.915 92.128-2.332 30.9-3.5 61.808-3.5 92.128 0 26.822 1.166 49.563 3.5 69.388 1.749 19.825 7 36.152 16.327 48.98 8.746 12.828 22.157 22.741 39.65 29.155 17.493 7 41.982 9.913 73.469 9.913 15.16 0 28.571 0 41.4-0.583a249.9 249.9 0 0 0 32.07-2.332c9.329-1.166 16.327-2.332 21.574-4.665 4.664-2.33 7.58-5.245 7.58-9.327z" fill="#FFFFFF" p-id="2506"></path></svg>