<?xml version="1.0" standalone="no"?><!DOCTYPE svg PUBLIC "-//W3C//DTD SVG 1.1//EN" "http://www.w3.org/Graphics/SVG/1.1/DTD/svg11.dtd"><svg t="1678990259640" class="icon" viewBox="0 0 1024 1024" version="1.1" xmlns="http://www.w3.org/2000/svg" p-id="2823" xmlns:xlink="http://www.w3.org/1999/xlink" width="32" height="32"><path d="M512 899.5c-213.668 0-387.5-173.832-387.5-387.5S298.332 124.5 512 124.5 899.5 298.332 899.5 512 725.668 899.5 512 899.5z" fill="#3666F6" p-id="2824"></path><path d="M512 137c-206.776 0-375 168.224-375 375s168.224 375 375 375 375-168.224 375-375-168.224-375-375-375m0-25c220.914 0 400 179.086 400 400S732.914 912 512 912 112 732.914 112 512s179.086-400 400-400z" fill="#FFFFFF" p-id="2825"></path><path d="M666.868 341.358c0-4.893-3.058-10.4-9.174-15.9-6.728-4.893-12.844-7.951-18.349-7.951-10.4 0-17.737 3.058-22.018 8.563a32.005 32.005 0 0 0-7.339 20.8v12.844c0 4.893 0.612 9.174 0.612 12.844 0 7.951 0.612 15.291 0.612 21.407v21.407c0 28.746 0 56.881 1.223 85.015 0 28.746 0.612 57.492 0.612 86.239 0 9.786-0.612 18.96-0.612 28.746s-0.612 20.8-1.223 34.251q-41.285-31.201-66.056-66.063a494.012 494.012 0 0 1-44.648-72.78c-3.058-5.5-6.116-12.844-9.786-21.407s-7.951-18.349-12.232-29.969c-4.89-11.624-9.175-24.468-14.068-39.147-5.5-14.067-11.621-29.969-17.737-47.095l-6.116-20.8c-2.446-6.116-4.893-12.844-7.951-19.572-6.728-13.456-18.96-20.8-36.086-20.8a28.248 28.248 0 0 0-17.732 6.126c-5.5 4.893-7.951 10.4-7.951 17.125a37.612 37.612 0 0 0 0.612 8.563c0 3.058-0.612 6.116-0.612 8.563-4.893 37.921-8.563 75.229-10.4 111.927-1.837 37.308-2.449 74.617-2.449 112.538 0 45.872 0.612 78.287 1.835 97.859a74.018 74.018 0 0 0 0.612 11.621c0 4.281 1.223 7.951 2.446 11.621a20.6 20.6 0 0 0 6.728 10.4q3.67 3.67 12.844 3.67a41.943 41.943 0 0 0 19.572-4.893c6.728-2.446 10.4-6.728 10.4-12.844a91.248 91.248 0 0 0-1.223-12.844l-2.446-11.621a24.542 24.542 0 0 1-1.835-9.174l-2.446-9.786a93.349 93.349 0 0 1-1.835-18.349c-0.612-7.339-0.612-19.572-0.612-36.7-0.612-15.9-0.612-36.7-0.612-62.385 0-20.183 0-41.59 0.612-64.22q0-33.028 3.67-82.569c12.229 40.978 25.073 78.287 39.14 111.315a528.063 528.063 0 0 0 50.765 93.578c7.339 11.009 15.291 22.63 25.076 33.639a361.585 361.585 0 0 0 29.358 31.8 322.471 322.471 0 0 0 31.8 26.911 143.286 143.286 0 0 0 29.969 20.183 20.1 20.1 0 0 0 10.4 2.446c10.4 0 17.737-4.281 22.018-13.456a230.944 230.944 0 0 0 7.339-22.018l3.67-26.3 1.223-27.523v-92.961c0-22.63 0-45.872 0.612-69.113V415.98c0-13.456 0-26.3 1.223-39.144a24.541 24.541 0 0 1 1.835-9.174l2.447-9.174c1.223-3.67 2.446-6.728 3.058-8.563a70.188 70.188 0 0 0 1.225-8.567z" fill="#FFFFFF" p-id="2826"></path></svg>