<?xml version="1.0" standalone="no"?><!DOCTYPE svg PUBLIC "-//W3C//DTD SVG 1.1//EN" "http://www.w3.org/Graphics/SVG/1.1/DTD/svg11.dtd"><svg t="1678990278456" class="icon" viewBox="0 0 1024 1024" version="1.1" xmlns="http://www.w3.org/2000/svg" p-id="3147" xmlns:xlink="http://www.w3.org/1999/xlink" width="32" height="32"><path d="M512 899.5c-213.668 0-387.5-173.832-387.5-387.5S298.332 124.5 512 124.5 899.5 298.332 899.5 512 725.668 899.5 512 899.5z" fill="#3666F6" p-id="3148"></path><path d="M512 137c-206.776 0-375 168.224-375 375s168.224 375 375 375 375-168.224 375-375-168.224-375-375-375m0-25c220.914 0 400 179.086 400 400S732.914 912 512 912 112 732.914 112 512s179.086-400 400-400z" fill="#FFFFFF" p-id="3149"></path><path d="M651.651 453.86c0-12.791-2.326-26.744-6.4-41.279a179.066 179.066 0 0 0-18.6-40.116 146.377 146.377 0 0 0-29.07-33.721 128.006 128.006 0 0 0-38.953-21.512c-6.977-1.744-14.535-2.907-21.512-4.07-7.558-0.581-15.116-1.163-22.674-1.163a203.015 203.015 0 0 0-29.07 2.326 135.581 135.581 0 0 0-21.512 4.651 113.3 113.3 0 0 0-12.791 5.814c-5.233 2.907-10.465 5.814-15.7 9.3a9.006 9.006 0 0 1-1.163-4.651 21.81 21.81 0 0 1-0.581-5.814c-2.326-3.488-5.233-5.814-9.884-8.14A30.543 30.543 0 0 0 410.372 312a57.976 57.976 0 0 0-9.3 1.163 49.24 49.24 0 0 0-9.884 2.326 18.713 18.713 0 0 0-7.558 4.651 11.832 11.832 0 0 0-3.488 8.721 19.531 19.531 0 0 0 2.326 8.721l1.744 4.651c0 1.744 0.581 4.07 0.581 6.977v5.233a642.564 642.564 0 0 0-9.884 73.837c-2.326 25-2.907 50-2.907 75 0 12.791 0 28.488 1.163 45.93 0 17.442 1.163 35.465 2.326 53.488 1.16 18.602 3.486 36.046 5.809 52.902a215.236 215.236 0 0 0 9.884 43.023c1.163 4.651 4.07 7.558 8.721 9.884A27.621 27.621 0 0 0 413.86 712a42.479 42.479 0 0 0 17.44-3.488c4.651-2.326 7.558-5.814 7.558-11.628 0-2.907-1.163-5.814-3.488-9.3a35.564 35.564 0 0 1-2.907-6.977l-1.744-5.814c-3.488-12.209-5.814-26.163-7.558-42.442-2.326-15.7-4.651-33.721-5.814-53.488a243.381 243.381 0 0 0 44.188 14.537A165.872 165.872 0 0 0 497 597.47c24.419 0 46.512-3.488 65.7-10.465s35.465-16.279 48.837-29.07a126.991 126.991 0 0 0 30.233-44.767c6.393-17.447 9.881-37.215 9.881-59.308z m-43.6 5.814a96.368 96.368 0 0 1-9.3 41.86 90.735 90.735 0 0 1-24.419 32.558 106.463 106.463 0 0 1-37.209 20.93A141.545 141.545 0 0 1 492.349 562c-11.628 0-22.093-1.163-31.4-4.651A106.762 106.762 0 0 1 431.3 545.14c-2.326-1.163-4.651-2.907-6.977-4.07l-8.723-5.233c-0.581-6.4-0.581-12.209-0.581-16.86s0.581-9.884 0.581-14.535c0-10.465 0-19.186 0.581-26.163v-19.186l1.163-14.535 1.163-13.372a156.657 156.657 0 0 1 9.3-26.163q5.233-12.209 12.209-19.186c12.209-12.791 24.419-22.674 36.628-28.488a78.5 78.5 0 0 1 36.047-8.721c11.628 0 23.256 2.326 34.884 5.814 11.047 4.07 20.93 10.465 30.233 19.186s16.279 19.767 22.093 33.721c5.239 14.535 8.146 31.977 8.146 52.325z" fill="#FFFFFF" p-id="3150"></path></svg>