<?xml version="1.0" standalone="no"?><!DOCTYPE svg PUBLIC "-//W3C//DTD SVG 1.1//EN" "http://www.w3.org/Graphics/SVG/1.1/DTD/svg11.dtd"><svg t="1678990227038" class="icon" viewBox="0 0 1024 1024" version="1.1" xmlns="http://www.w3.org/2000/svg" p-id="2183" xmlns:xlink="http://www.w3.org/1999/xlink" width="32" height="32"><path d="M512 899.5c-213.668 0-387.5-173.832-387.5-387.5S298.332 124.5 512 124.5 899.5 298.332 899.5 512 725.668 899.5 512 899.5z" fill="#FFFFFF" p-id="2184"></path><path d="M512 137c-206.776 0-375 168.224-375 375s168.224 375 375 375 375-168.224 375-375-168.224-375-375-375m0-25c220.914 0 400 179.086 400 400S732.914 912 512 912 112 732.914 112 512s179.086-400 400-400z" fill="#707070" p-id="2185"></path><path d="M659.678 340.018a19 19 0 0 0-3.578-10.138 40.12 40.12 0 0 0-8.942-8.346c-3.577-2.384-7.75-4.769-11.326-7.153-4.769-1.192-8.346-2.385-11.326-2.385-4.173 0-9.538 1.788-15.5 4.173-2.981 1.788-5.961 2.981-8.346 4.173-2.981 1.788-5.961 2.981-8.942 2.981-23.845 3.577-46.5 6.557-67.958 7.75-21.461 2.385-44.113 4.173-66.766 5.961a54.549 54.549 0 0 1-9.538 0.6 52.5 52.5 0 0 0-10.134 1.192c-6.557 1.788-9.538 4.769-9.538 8.346 0 7.75 5.961 14.9 19.076 22.057 2.385 1.788 5.961 2.981 10.73 4.173a61.515 61.515 0 0 0 15.5 1.788 91.365 91.365 0 0 0 16.1-1.192l19.672-2.384a120.638 120.638 0 0 0 15.5-2.384l11.326-1.788c0 20.268 0.6 42.325 1.788 64.978l1.785 66.76 1.192 58.42c0 17.884 0.6 31.595 0.6 39.94 0 5.365-0.6 12.519-1.192 20.864-1.192 8.942-2.385 17.288-4.769 25.633s-5.961 16.1-10.73 22.057a23.454 23.454 0 0 1-19.076 8.942 35.866 35.866 0 0 1-16.1-4.173 102.078 102.078 0 0 1-19.672-13.115 184.734 184.734 0 0 1-22.056-21.456A150.822 150.822 0 0 1 426 608.274a131.479 131.479 0 0 1-11.329-20.864c-4.173-7.75-5.961-14.307-5.961-19.076 0-2.981 1.192-5.961 3.577-9.538s4.173-6.557 6.557-8.942l4.172-4.174 1.784-3.576v-2.98a15.8 15.8 0 0 0-1.788-5.961 28.023 28.023 0 0 0-5.365-7.153 42.316 42.316 0 0 0-8.346-5.961c-3.577-1.192-7.153-2.384-10.73-2.384-11.923 0-20.268 4.769-26.23 13.711-5.957 9.536-8.341 19.67-8.341 30.404a42.156 42.156 0 0 0 2.981 16.1 104.614 104.614 0 0 0 7.154 19.076 98.846 98.846 0 0 0 8.941 19.664c3.577 6.557 6.557 11.923 9.538 15.5 13.115 19.076 25.633 33.383 38.152 43.517 11.922 10.73 22.653 19.076 32.787 23.845q14.307 8.942 25.037 10.73A90.4 90.4 0 0 0 502.9 712c16.691 0 31-2.981 42.325-10.134a70.414 70.414 0 0 0 26.23-25.037 116.5 116.5 0 0 0 13.115-35.768 221.19 221.19 0 0 0 3.577-39.94c0-17.288-0.6-36.96-0.6-59.016l-1.788-66.766-1.192-63.189c-0.6-19.672-0.6-36.364-0.6-50.671a100.492 100.492 0 0 0 14.9-1.192c3.577 0 7.154-0.6 10.73-0.6l10.73-1.192a52.422 52.422 0 0 0 11.922-1.788 54.3 54.3 0 0 0 18.48-5.365c5.971-2.382 8.949-5.962 8.949-11.324z" fill="#707070" p-id="2186"></path></svg>