<?xml version="1.0" standalone="no"?><!DOCTYPE svg PUBLIC "-//W3C//DTD SVG 1.1//EN" "http://www.w3.org/Graphics/SVG/1.1/DTD/svg11.dtd"><svg t="1678990236270" class="icon" viewBox="0 0 1024 1024" version="1.1" xmlns="http://www.w3.org/2000/svg" p-id="2343" xmlns:xlink="http://www.w3.org/1999/xlink" width="32" height="32"><path d="M512 899.5c-213.668 0-387.5-173.832-387.5-387.5S298.332 124.5 512 124.5 899.5 298.332 899.5 512 725.668 899.5 512 899.5z" fill="#FFFFFF" p-id="2344"></path><path d="M512 137c-206.776 0-375 168.224-375 375s168.224 375 375 375 375-168.224 375-375-168.224-375-375-375m0-25c220.914 0 400 179.086 400 400S732.914 912 512 912 112 732.914 112 512s179.086-400 400-400z" fill="#707070" p-id="2345"></path><path d="M668.684 689.581c0-4.13-2.95-8.26-7.67-12.389-9.44-7.08-18.289-14.159-27.139-21.239l-27.138-21.239q-14.159-10.619-26.549-21.239a247.486 247.486 0 0 1-26.548-23.009L516.472 553.3c-12.389-12.391-24.779-24.781-37.172-37.76l-4.13-4.13 22.419-24.189c5.9-5.9 10.029-10.619 12.979-14.159q18.584-18.584 38.938-37.168c13.569-11.8 27.729-23.6 42.478-34.218a14.68 14.68 0 0 1 4.13-2.95l5.9-3.54 12.389-7.08c4.13-2.36 8.26-4.72 12.979-7.67 4.13-2.36 6.49-4.13 6.49-6.49q0-13.274-8.85-21.239c-5.9-4.72-14.749-7.08-25.959-7.08-2.36 0-5.31 1.18-8.26 2.36l-10.619 5.31c-3.54 2.36-6.49 4.13-8.85 6.49-2.95 2.36-5.31 4.13-6.49 5.31-14.159 12.979-28.319 25.369-41.3 38.348-13.569 13.569-26.549 27.139-39.528 40.708-6.49 7.08-12.979 14.159-20.059 21.829s-14.749 15.339-21.829 23.6l-22.411 23.598-20.059 22.42v-38.349c0-14.159 1.18-28.319 2.36-43.068a353 353 0 0 1 4.13-43.658 211 211 0 0 1 8.26-37.758 25.6 25.6 0 0 1 4.13-9.44c2.36-2.36 4.13-5.31 6.49-8.85 1.18-1.77 2.95-4.13 4.72-6.49a17.054 17.054 0 0 0 2.36-8.26c0-2.95-1.18-5.9-2.95-9.44a53.464 53.464 0 0 0-6.49-9.44 76.861 76.861 0 0 0-8.85-5.9A24.039 24.039 0 0 0 403.2 312a31.717 31.717 0 0 0-16.519 4.72c-4.72 3.54-8.26 7.67-10.03 12.979a91.006 91.006 0 0 0-2.95 10.03l-1.77 11.209a42.151 42.151 0 0 0-1.18 11.8 65.345 65.345 0 0 1-1.18 11.209c-4.72 25.959-7.67 51.917-10.029 77.286C357.18 477.192 356 502.56 356 528.519c0 17.7 0.59 34.808 1.77 51.917 1.18 17.7 2.36 34.218 4.72 49.558 1.77 15.929 4.13 29.5 6.49 41.3 2.36 12.389 4.72 21.239 7.08 27.139 4.13 9.44 11.8 13.569 23.6 13.569q14.159 0 21.239-5.31a19.54 19.54 0 0 0 5.9-14.159c0-3.54-2.36-8.85-5.9-17.109a67.2 67.2 0 0 1-5.31-11.209 26.5 26.5 0 0 1-4.13-10.619c-2.36-8.85-4.13-20.059-5.31-33.038-1.77-12.979-2.95-24.779-4.13-36.578 7.08-5.9 14.749-12.389 22.419-20.059a357.08 357.08 0 0 0 25.962-25.962c20.059 23.009 41.3 46.018 64.307 69.617q27.434 28.319 54.867 53.1a580.724 580.724 0 0 0 52.507 41.888c5.31 4.72 11.8 6.49 20.059 6.49a31.762 31.762 0 0 0 18.289-5.31c5.305-3.544 8.255-8.263 8.255-14.163z" fill="#707070" p-id="2346"></path></svg>