<?xml version="1.0" standalone="no"?><!DOCTYPE svg PUBLIC "-//W3C//DTD SVG 1.1//EN" "http://www.w3.org/Graphics/SVG/1.1/DTD/svg11.dtd"><svg t="1678990346558" class="icon" viewBox="0 0 1024 1024" version="1.1" xmlns="http://www.w3.org/2000/svg" p-id="4427" xmlns:xlink="http://www.w3.org/1999/xlink" width="32" height="32"><path d="M512 899.5c-213.668 0-387.5-173.832-387.5-387.5S298.332 124.5 512 124.5 899.5 298.332 899.5 512 725.668 899.5 512 899.5z" fill="#FFFFFF" p-id="4428"></path><path d="M512 137c-206.776 0-375 168.224-375 375s168.224 375 375 375 375-168.224 375-375-168.224-375-375-375m0-25c220.914 0 400 179.086 400 400S732.914 912 512 912 112 732.914 112 512s179.086-400 400-400z" fill="#707070" p-id="4429"></path><path d="M676.409 692.682a8.212 8.212 0 0 0-1.136-3.977c-1.136-1.136-1.7-2.273-2.841-3.409l-5.114-3.409a20.182 20.182 0 0 1-5.118-2.273c-10.227-4.545-21.023-13.068-33.523-24.432s-25-23.864-37.5-37.5c-13.068-13.636-25-27.273-36.364-41.477-11.358-13.637-21.013-25.005-28.404-35.228 9.091-13.068 18.182-25.568 26.136-37.5 7.955-11.364 15.909-23.3 23.864-35.227 10.227-15.909 20.455-32.955 29.545-50q13.636-24.716 30.682-49.432c1.7-2.273 3.409-5.114 5.682-8.523 2.273-2.273 3.977-5.114 6.25-8.523 3.977-5.682 6.25-11.932 6.25-17.614 0-2.273-1.136-5.114-3.409-7.955-2.841-2.273-5.682-4.545-9.091-6.818a70.709 70.709 0 0 0-11.364-5.682 38.2 38.2 0 0 0-10.227-1.7c-13.068 0-22.159 5.682-27.273 15.909-13.636 29.545-28.409 57.386-43.182 84.659q-23.011 41.759-52.84 88.629c-12.5-18.75-23.3-36.364-32.386-52.273s-17.614-32.386-25-48.3a107.314 107.314 0 0 1-6.25-14.2c-2.273-4.545-3.977-9.091-6.25-14.2-2.273-4.545-4.545-8.523-6.818-13.068-2.841-4.545-5.682-8.523-8.523-13.068a47.9 47.9 0 0 0-14.2-12.5 45.739 45.739 0 0 0-18.75-3.977c-5.682 0-9.659 1.7-13.068 5.114A16.454 16.454 0 0 0 360.5 347.8c0 5.682 1.7 13.636 6.25 23.3 3.977 10.227 9.659 21.023 16.477 32.955 6.818 12.5 14.2 25 22.727 38.068 7.955 13.636 16.477 26.136 25 38.636 7.955 12.5 15.909 23.3 23.3 33.523 6.818 10.227 13.068 18.75 18.182 24.432-6.822 10.218-13.636 20.445-21.595 31.809l-24.432 35.8c-9.091 12.495-17.609 23.859-26.136 34.086-9.091 10.8-17.045 19.318-24.432 25a14.823 14.823 0 0 1-5.682 3.977 52.556 52.556 0 0 1-5.682 2.841 54.415 54.415 0 0 0-11.932 6.25c-3.409 1.7-4.545 6.25-4.545 13.636 0 6.25 2.273 11.364 6.818 14.773S365.045 712 371.864 712c4.545 0 9.091-1.7 14.773-4.545A110.918 110.918 0 0 0 399.7 697.8c5.682-5.682 11.932-12.5 17.614-19.318l15.909-19.318 32.955-39.773c11.364-12.5 22.727-27.273 35.227-43.75l19.318 23.3L546.3 626.2c9.091 9.659 18.75 19.318 28.977 28.409a243.737 243.737 0 0 0 29.545 25.568 129.433 129.433 0 0 0 27.841 18.182c9.091 4.545 17.045 6.818 24.432 6.818 3.977 0 7.955-1.136 12.5-3.977q6.814-3.4 6.814-8.518z" fill="#707070" p-id="4430"></path></svg>