<?xml version="1.0" standalone="no"?><!DOCTYPE svg PUBLIC "-//W3C//DTD SVG 1.1//EN" "http://www.w3.org/Graphics/SVG/1.1/DTD/svg11.dtd"><svg t="1678990362147" class="icon" viewBox="0 0 1024 1024" version="1.1" xmlns="http://www.w3.org/2000/svg" p-id="4747" xmlns:xlink="http://www.w3.org/1999/xlink" width="32" height="32"><path d="M512 899.5c-213.668 0-387.5-173.832-387.5-387.5S298.332 124.5 512 124.5 899.5 298.332 899.5 512 725.668 899.5 512 899.5z" fill="#FFFFFF" p-id="4748"></path><path d="M512 137c-206.776 0-375 168.224-375 375s168.224 375 375 375 375-168.224 375-375-168.224-375-375-375m0-25c220.914 0 400 179.086 400 400S732.914 912 512 912 112 732.914 112 512s179.086-400 400-400z" fill="#707070" p-id="4749"></path><path d="M682.719 370.084c0-20.359-10.778-35.329-31.138-44.91-20.958-8.383-53.293-13.174-97.6-13.174-4.79 0-11.976 0.6-21.557 1.2s-20.359 1.2-32.335 1.8c-12.575 1.2-25.15 1.8-38.323 2.994l-36.527 3.593c-11.976 1.8-22.156 3.593-30.539 4.79-8.982 1.2-14.97 2.4-18.563 3.593-6.587 2.4-10.778 4.79-13.174 8.383s-3.593 7.784-3.593 13.772c0 7.186 2.994 13.174 8.982 16.766 5.988 4.192 13.174 5.988 21.557 5.988a44.727 44.727 0 0 0 11.976-1.8l10.778-2.4 11.976-3.593c2.994-0.6 6.587-1.2 10.778-2.4 17.964-3.593 34.731-6.587 50.9-8.982a419.881 419.881 0 0 1 47.9-2.994c27.545 0 48.5 2.994 62.874 8.383q21.557 8.982 21.557 19.76c0 5.988-4.79 13.174-13.772 21.557-9.581 8.383-19.76 17.365-31.138 25.749-13.174 9.581-27.545 20.359-43.713 31.737-16.766 11.976-34.132 23.952-51.5 36.527-17.962 13.177-34.725 26.954-50.896 40.727a367.022 367.022 0 0 0-43.713 41.916c-12.575 14.371-22.754 28.742-29.94 43.114C345.593 637.15 342 651.521 342 665.293c0 10.778 2.994 18.563 9.581 24.551a62.959 62.959 0 0 0 23.952 13.772 110.884 110.884 0 0 0 29.341 7.184 221.648 221.648 0 0 0 26.946 1.2c18.563 0 37.126 0 55.689-1.2 17.964-0.6 37.126-1.8 56.287-2.994 10.778-0.6 22.156-1.2 32.934-1.8l33.533-1.2c2.994 0 6.587-0.6 10.18-0.6h10.18c3.593 0 7.784-0.6 11.377-0.6l10.778-1.8c6.587-1.8 11.377-4.192 14.97-7.784 2.4-2.4 4.192-7.186 4.192-14.371 0-2.4-1.8-5.389-4.192-8.982-2.4-2.994-5.988-5.988-9.581-8.982-3.593-2.4-7.784-4.79-11.976-7.186-4.192-1.2-7.784-2.4-10.778-2.4a44.533 44.533 0 0 0-16.766 3.593 69.7 69.7 0 0 0-8.982 3.593 52.693 52.693 0 0 1-8.982 2.994 537.932 537.932 0 0 1-76.048 8.982c-13.174 1.2-25.749 1.2-38.323 1.2h-37.126a71.127 71.127 0 0 1-14.97-1.2 43.751 43.751 0 0 1-17.964-3.593q-8.982-1.8-14.371-7.186c-4.79-2.994-6.587-7.186-6.587-12.575s2.994-12.575 8.982-20.958 14.371-17.351 25.149-27.526c9.581-9.581 21.557-19.76 34.731-31.138 13.173-10.778 26.944-22.155 41.317-32.934s28.743-22.153 43.114-32.934 27.545-20.359 40.719-29.94q18.862-14.371 34.132-25.15l23.353-16.766a113.491 113.491 0 0 0 25.749-27.545c6.586-10.18 10.179-20.958 10.179-32.934z" fill="#707070" p-id="4750"></path></svg>